<svg width="21" height="21" viewBox="0 0 21 21" fill="none" xmlns="http://www.w3.org/2000/svg">
<path d="M9.17009 2.50013C10.252 2.50128 11.3123 2.8033 12.2324 3.37242C13.1525 3.94154 13.8962 4.75533 14.3804 5.72285C14.8646 6.69036 15.0702 7.77347 14.9742 8.8511C14.8782 9.92874 14.4844 10.9584 13.8368 11.8251L18.9284 16.9085C19.0065 16.9859 19.0685 17.0781 19.1108 17.1796C19.1531 17.2812 19.1749 17.3901 19.1749 17.5001C19.1749 17.6101 19.1531 17.7191 19.1108 17.8206C19.0685 17.9222 19.0065 18.0143 18.9284 18.0918C18.851 18.1699 18.7588 18.2319 18.6572 18.2742C18.5557 18.3165 18.4468 18.3383 18.3368 18.3383C18.2268 18.3383 18.1178 18.3165 18.0163 18.2742C17.9147 18.2319 17.8226 18.1699 17.7451 18.0918L12.6618 13.0001C11.922 13.5549 11.061 13.9259 10.1497 14.0825C9.23843 14.2391 8.30296 14.1768 7.42046 13.9008C6.53797 13.6248 5.73373 13.143 5.07407 12.495C4.41441 11.8471 3.91824 11.0516 3.62646 10.1742C3.33469 9.29675 3.25568 8.36255 3.39594 7.44859C3.5362 6.53464 3.89172 5.66712 4.43318 4.91758C4.97463 4.16804 5.68652 3.55796 6.51012 3.13764C7.33372 2.71732 8.24544 2.49881 9.17009 2.50013ZM9.17009 12.5001C9.99418 12.5001 10.7998 12.2558 11.485 11.7979C12.1702 11.3401 12.7042 10.6893 13.0196 9.92798C13.335 9.16662 13.4175 8.32884 13.2567 7.52059C13.0959 6.71233 12.6991 5.9699 12.1164 5.38718C11.5337 4.80446 10.7912 4.40763 9.98297 4.24686C9.17472 4.08608 8.33694 4.1686 7.57558 4.48396C6.81422 4.79933 6.16348 5.33338 5.70564 6.01859C5.2478 6.70379 5.00343 7.50937 5.00343 8.33346C5.00343 8.88064 5.1112 9.42245 5.32059 9.92798C5.52999 10.4335 5.8369 10.8928 6.22381 11.2797C6.61073 11.6667 7.07006 11.9736 7.57558 12.183C8.0811 12.3924 8.62292 12.5001 9.17009 12.5001Z" fill="white"/>
</svg>
