<svg width="32" height="32" viewBox="0 0 32 32" fill="none" xmlns="http://www.w3.org/2000/svg">
<g clip-path="url(#clip0_1670_2557)">
<mask id="mask0_1670_2557" style="mask-type:luminance" maskUnits="userSpaceOnUse" x="0" y="0" width="32" height="32">
<circle cx="16" cy="16" r="16" fill="white"/>
</mask>
<g mask="url(#mask0_1670_2557)">
<rect width="32" height="32" fill="white"/>
<rect width="32" height="32" fill="#D9008D"/>
<path d="M23.4267 7.40671C23.4041 7.27911 23.3564 7.15723 23.2866 7.04801C23.2167 6.9388 23.1259 6.8444 23.0194 6.77021C22.913 6.69603 22.7929 6.6435 22.6661 6.61565C22.5393 6.58779 22.4082 6.58515 22.2804 6.60787L21.4009 6.76567L19.4837 10.1188L23.7726 9.35943L23.4267 7.40671ZM18.871 7.20947L14.8094 7.92941L12.8923 11.2628L16.9539 10.5528L18.871 7.20947ZM12.2894 8.37321L8.67255 9.00439C8.41853 9.04799 8.19163 9.18892 8.04024 9.39711C7.88886 9.6053 7.82497 9.86428 7.86221 10.1188L8.1982 12.0913L10.3624 11.7066L12.2894 8.37321ZM8.33656 13.0775V21.9535C8.33656 22.4766 8.54479 22.9783 8.91544 23.3482C9.2861 23.7181 9.78882 23.9259 10.313 23.9259L22.1717 23.9259C22.6959 23.9259 23.1986 23.7181 23.5692 23.3482C23.9399 22.9783 24.1481 22.4766 24.1481 21.9535L24.1481 13.0775L8.33656 13.0775ZM18.4757 19.2907L15.8471 21.2631C15.7002 21.373 15.5257 21.4399 15.3429 21.4564C15.1601 21.4728 14.9763 21.4382 14.8122 21.3562C14.648 21.2743 14.51 21.1484 14.4135 20.9926C14.317 20.8368 14.2659 20.6573 14.2659 20.4741L14.2659 16.5293C14.2659 16.3461 14.317 16.1666 14.4135 16.0108C14.51 15.855 14.648 15.7291 14.8122 15.6472C14.9763 15.5652 15.1601 15.5306 15.3429 15.547C15.5257 15.5635 15.7002 15.6304 15.8471 15.7403L18.4757 17.7127C18.5985 17.8046 18.6981 17.9237 18.7667 18.0607C18.8353 18.1976 18.871 18.3486 18.871 18.5017C18.871 18.6548 18.8353 18.8058 18.7667 18.9428C18.6981 19.0797 18.5985 19.1988 18.4757 19.2907Z" fill="white"/>
</g>
</g>
<defs>
<clipPath id="clip0_1670_2557">
<rect width="32" height="32" fill="white"/>
</clipPath>
</defs>
</svg>
